<?xml version="1.0" standalone="no"?>
<!DOCTYPE svg PUBLIC "-//W3C//DTD SVG 20010904//EN"
 "http://www.w3.org/TR/2001/REC-SVG-20010904/DTD/svg10.dtd">
<svg version="1.0" xmlns="http://www.w3.org/2000/svg"
 width="360.000000pt" height="360.000000pt" viewBox="0 0 360.000000 360.000000"
 preserveAspectRatio="xMidYMid meet">

<g transform="translate(0.000000,360.000000) scale(0.100000,-0.100000)"
fill="#000000" stroke="none">
<path d="M1623 3205 c-97 -17 -192 -50 -287 -97 -118 -59 -161 -91 -271 -202
-115 -118 -180 -218 -231 -363 -96 -268 -83 -517 46 -858 28 -71 57 -166 66
-210 19 -91 38 -135 59 -135 8 0 17 11 21 25 6 25 28 33 39 15 3 -5 10 -44 14
-86 10 -87 21 -106 49 -81 44 40 59 12 74 -138 11 -108 3 -276 -18 -417 -9
-58 43 -99 80 -62 14 13 16 49 16 243 0 239 5 267 45 260 10 -2 33 -24 50 -49
28 -39 37 -46 76 -50 35 -4 46 -10 57 -32 20 -42 26 -182 13 -283 -26 -192
-26 -212 -2 -220 11 -3 30 -3 41 0 19 6 20 14 18 165 -3 138 -1 160 14 177 10
11 20 35 24 54 11 70 15 79 29 79 8 0 15 -7 15 -15 0 -9 11 -27 25 -39 23 -22
27 -36 36 -142 6 -66 8 -167 5 -226 -5 -89 -4 -109 10 -122 19 -19 48 -21 62
-3 6 7 12 91 14 202 4 205 12 241 56 252 34 8 51 -14 59 -76 7 -61 27 -76 55
-42 13 17 18 40 18 86 0 44 5 68 16 79 22 22 31 20 51 -11 15 -23 18 -50 18
-176 0 -132 2 -151 18 -161 12 -8 22 -8 35 0 15 10 17 32 17 210 0 200 11 274
39 274 24 0 36 -25 37 -79 1 -78 11 -105 37 -109 30 -5 35 23 23 143 -12 132
0 199 44 235 44 37 75 -75 80 -287 2 -84 6 -157 10 -163 7 -11 64 -14 66 -2 1
4 2 106 4 227 2 228 14 325 41 325 8 0 14 -6 14 -14 0 -16 24 -28 44 -20 21 8
43 67 77 204 16 69 43 161 59 206 15 44 43 139 62 210 31 120 33 140 33 284
-1 173 -19 266 -79 410 -87 206 -271 402 -471 504 -201 102 -442 139 -652 101z
m328 -701 c76 -35 149 -112 179 -192 18 -46 21 -72 18 -137 -5 -96 -29 -155
-89 -220 -41 -44 -123 -96 -151 -94 -7 0 -4 4 7 9 17 7 17 9 3 9 -10 1 -18 9
-18 19 0 13 -2 14 -9 3 -7 -11 -13 -11 -32 3 -16 11 -19 16 -9 17 11 0 11 2 3
6 -7 2 -13 11 -13 18 0 7 6 15 13 18 7 2 8 8 3 13 -5 5 -11 4 -13 -3 -9 -24
-23 -13 -23 17 0 22 -5 30 -18 30 -10 0 -31 18 -48 41 -16 22 -35 46 -41 54
-7 7 -13 20 -13 29 0 8 -9 20 -20 26 -12 6 -20 21 -20 35 0 17 -6 25 -17 26
-15 0 -15 2 2 9 19 8 19 9 -2 9 -18 1 -23 7 -23 27 0 21 -4 24 -20 19 -16 -5
-20 -2 -20 19 0 19 -5 26 -20 26 -10 0 -24 8 -29 18 -9 15 -12 15 -21 2 -5 -8
-10 -10 -10 -4 0 7 21 35 46 63 48 53 115 94 181 111 61 15 157 4 224 -26z
m-1098 -151 c-14 -5 -18 -33 -5 -33 4 0 7 -55 7 -123 0 -107 -2 -123 -16 -123
-21 0 -32 72 -24 149 15 133 16 137 33 136 11 0 12 -3 5 -6z m1911 -33 c12 0
26 -79 26 -146 0 -27 -19 -33 -21 -6 -1 11 -4 9 -9 -8 -6 -17 -8 -1 -7 52 1
42 -1 74 -5 71 -5 -2 -7 15 -7 39 1 24 4 33 6 21 2 -13 10 -23 17 -23z m-1864
-128 c0 -73 -4 -112 -9 -107 -19 19 -19 241 -1 230 6 -4 10 -56 10 -123z m110
88 c4 14 7 -18 6 -70 -1 -77 -4 -95 -16 -95 -20 0 -24 41 -14 135 6 57 9 66
13 40 4 -33 4 -33 11 -10z m1608 -80 c0 -30 -3 -46 -5 -35 -3 11 -9 22 -13 25
-4 3 -10 28 -13 55 -5 34 -4 43 2 30 9 -18 10 -16 11 10 l2 30 8 -30 c4 -16 8
-55 8 -85z m52 93 c0 -5 3 -32 6 -61 5 -44 4 -51 -9 -46 -11 4 -17 -2 -20 -18
-2 -13 -5 9 -6 48 0 39 2 74 6 77 9 9 23 9 23 0z m50 -68 c0 -27 -5 -57 -10
-65 -7 -10 -10 10 -10 65 0 55 3 75 10 65 5 -8 10 -37 10 -65z m-1760 -25 c0
-83 -1 -90 -20 -90 -19 0 -20 7 -20 90 0 83 1 90 20 90 19 0 20 -7 20 -90z
m1600 26 c0 -29 -3 -33 -20 -29 -23 6 -27 43 -5 43 8 0 15 5 15 10 0 6 2 10 5
10 3 0 5 -15 5 -34z m-1494 -33 c20 -44 18 -53 -11 -53 -27 0 -29 8 -18 75 3
22 8 33 11 25 2 -8 10 -29 18 -47z m1434 20 c0 -20 -3 -33 -7 -29 -5 4 -8 21
-8 37 0 16 3 29 8 29 4 0 7 -16 7 -37z m-103 -5 c-3 -7 -5 -2 -5 12 0 14 2 19
5 13 2 -7 2 -19 0 -25z m40 0 c-3 -7 -5 -2 -5 12 0 14 2 19 5 13 2 -7 2 -19 0
-25z m20 -5 c-3 -10 -5 -4 -5 12 0 17 2 24 5 18 2 -7 2 -21 0 -30z m-1345 -23
c-2 -22 -6 -40 -8 -40 -2 0 -4 18 -4 40 0 22 3 40 8 40 4 0 6 -18 4 -40z m55
-22 c-2 -13 -4 -5 -4 17 -1 22 1 32 4 23 2 -10 2 -28 0 -40z m-20 0 c-3 -8 -6
-5 -6 6 -1 11 2 17 5 13 3 -3 4 -12 1 -19z m60 0 c-3 -8 -6 -5 -6 6 -1 11 2
17 5 13 3 -3 4 -12 1 -19z"/>
<path d="M1767 2222 c-18 -20 -22 -48 -8 -56 4 -3 6 5 4 18 -4 17 2 28 18 40
13 9 19 16 13 16 -6 0 -18 -8 -27 -18z"/>
<path d="M1846 2207 c3 -10 9 -15 12 -12 3 3 0 11 -7 18 -10 9 -11 8 -5 -6z"/>
<path d="M1740 2090 c0 -5 5 -10 11 -10 5 0 7 5 4 10 -3 6 -8 10 -11 10 -2 0
-4 -4 -4 -10z"/>
<path d="M2602 2230 c0 -14 2 -19 5 -12 2 6 2 18 0 25 -3 6 -5 1 -5 -13z"/>
</g>
</svg>
