<?xml version="1.0" standalone="no"?>
<!DOCTYPE svg PUBLIC "-//W3C//DTD SVG 20010904//EN"
 "http://www.w3.org/TR/2001/REC-SVG-20010904/DTD/svg10.dtd">
<svg version="1.0" xmlns="http://www.w3.org/2000/svg"
 width="280.000000pt" height="280.000000pt" viewBox="0 0 280.000000 280.000000"
 preserveAspectRatio="xMidYMid meet">

<g transform="translate(0.000000,280.000000) scale(0.100000,-0.100000)"
fill="#000000" stroke="none">
<path d="M1185 2591 c-132 -29 -215 -58 -317 -110 -252 -128 -447 -333 -566
-598 -28 -60 -72 -196 -72 -219 0 -4 37 -4 82 0 82 7 158 32 174 57 6 9 11
-32 14 -106 l5 -120 24 95 c47 187 130 330 265 457 121 115 233 178 401 225
118 33 335 33 455 -1 162 -45 320 -136 423 -244 49 -52 114 -133 119 -148 2
-7 50 -14 128 -20 73 -4 151 -16 187 -27 l62 -20 -20 52 c-56 144 -197 340
-319 445 -171 148 -358 238 -592 285 -107 22 -346 20 -453 -3z m270 -91 c3 -5
-1 -10 -9 -10 -9 0 -16 -4 -16 -10 0 -5 7 -10 15 -10 9 0 15 -9 15 -24 0 -25
-15 -36 -37 -29 -21 8 -15 22 7 16 14 -4 20 0 20 11 0 9 -6 16 -14 16 -19 0
-29 17 -22 35 6 17 32 20 41 5z m-143 -45 c-8 -25 -17 -45 -21 -45 -4 0 -15
14 -25 31 -10 17 -20 28 -23 25 -3 -3 2 -17 11 -32 19 -28 16 -43 -4 -19 -18
22 -39 19 -50 -7 -8 -17 -9 -12 -4 22 8 57 12 64 30 49 11 -9 14 -8 14 2 1 8
12 1 25 -16 l24 -30 12 33 c6 17 14 32 19 32 4 0 1 -20 -8 -45z m68 5 c11 -22
16 -40 10 -40 -5 0 -10 5 -10 10 0 17 -38 11 -49 -7 -14 -24 -14 -9 1 38 6 22
15 39 19 39 5 0 18 -18 29 -40z m180 29 c0 -6 -7 -8 -16 -5 -44 17 -76 -32
-36 -53 31 -17 62 -2 62 28 0 35 5 39 35 34 27 -6 40 -30 26 -47 -6 -7 -8 -23
-5 -37 5 -23 5 -23 -10 -5 -9 11 -16 23 -16 28 0 16 -17 7 -28 -14 -6 -13 -11
-18 -11 -12 -1 6 -13 9 -29 6 -40 -5 -69 29 -54 63 9 20 19 25 47 25 19 0 35
-5 35 -11z m100 -74 c-16 -43 -23 -23 -9 26 9 31 14 38 16 23 2 -11 -1 -33 -7
-49z m-488 14 c7 -44 -36 -81 -49 -42 -3 7 4 9 18 6 21 -6 22 -4 15 36 -4 25
-3 40 3 37 5 -3 11 -20 13 -37z m563 11 c0 -20 -6 -26 -27 -28 -18 -2 -28 -9
-28 -19 0 -9 -3 -14 -6 -10 -3 3 -3 24 1 47 6 37 9 41 33 38 21 -2 27 -8 27
-28z m95 -12 c11 -7 10 -8 -7 -5 -18 4 -25 -3 -38 -35 -20 -50 -29 -46 -13 6
10 31 9 39 -3 47 -19 13 40 0 61 -13z m-889 -85 c8 -21 14 -24 42 -19 31 6 31
5 -8 -14 l-40 -20 -17 21 c-18 21 -18 21 -18 -15 0 -41 -2 -42 -35 -20 -26 17
-34 7 -13 -14 6 -6 9 -14 6 -17 -3 -4 -16 8 -28 24 -18 26 -25 29 -41 21 -19
-11 -19 -12 7 -45 15 -19 21 -35 15 -35 -6 0 -18 11 -27 25 -12 19 -22 24 -38
20 -15 -4 -10 4 18 30 44 39 52 41 80 20 34 -26 46 -19 46 28 l0 42 21 -25
c17 -21 19 -22 10 -3 -14 28 -14 36 0 28 5 -4 14 -18 20 -32z m1097 -29 c12
-8 22 -20 22 -26 0 -6 -8 -4 -18 5 -23 21 -58 22 -66 2 -9 -23 3 -43 32 -53
16 -5 22 -11 15 -15 -6 -4 -24 3 -39 16 -21 19 -26 29 -21 50 6 22 15 29 47
36 3 0 16 -6 28 -15z m72 -59 c15 -18 -1 -20 -19 -2 -11 10 -12 6 -6 -22 5
-23 3 -36 -6 -42 -15 -9 -49 6 -49 23 0 7 5 6 15 -2 21 -17 38 -4 25 21 -19
35 14 55 40 24z m-1340 -78 c-1 -7 -6 -5 -14 5 -12 17 -14 17 -31 -2 -15 -17
-16 -22 -4 -37 12 -15 12 -16 -1 -8 -23 13 -60 48 -60 57 0 4 9 3 20 -4 16
-11 23 -10 37 5 13 13 14 20 5 29 -7 7 -12 17 -12 23 0 5 14 -5 30 -23 17 -18
30 -38 30 -45z m1398 18 l4 -20 -16 20 c-15 19 -16 19 -13 -15 2 -29 -2 -36
-19 -38 -22 -3 -52 24 -40 36 4 4 12 -1 17 -11 17 -30 30 -19 23 19 -6 33 -5
36 17 32 14 -2 25 -11 27 -23z"/>
<path d="M1210 2450 c0 -5 5 -10 10 -10 6 0 10 5 10 10 0 6 -4 10 -10 10 -5 0
-10 -4 -10 -10z"/>
<path d="M1587 2473 c-13 -12 -7 -23 13 -23 11 0 20 7 20 15 0 15 -21 21 -33
8z"/>
<path d="M1697 2453 c-4 -3 -7 -12 -7 -20 0 -15 26 -18 34 -4 7 11 -18 33 -27
24z"/>
<path d="M1215 2226 c-290 -73 -507 -268 -613 -551 -10 -27 -42 -158 -42 -172
0 -8 174 4 258 17 118 19 261 59 507 142 447 149 575 184 727 195 101 7 101 5
18 99 -210 240 -549 347 -855 270z m699 -296 c30 -76 70 -70 -465 -70 l-482 0
7 -130 7 -130 -54 0 -54 0 -13 126 c-8 69 -17 127 -22 130 -5 3 13 20 39 37
27 18 52 42 58 55 l10 22 476 0 477 0 16 -40z"/>
<path d="M918 1645 c-6 -30 -3 -43 8 -33 3 4 4 19 2 35 l-3 28 -7 -30z"/>
<path d="M942 1640 c1 -30 11 -39 23 -20 4 6 2 17 -4 24 -6 7 -8 16 -4 19 3 4
1 7 -5 7 -6 0 -10 -13 -10 -30z"/>
<path d="M1938 1613 c-10 -2 -18 -7 -18 -10 0 -3 -7 -53 -16 -111 -16 -112
-33 -141 -81 -142 -21 0 -23 5 -23 45 0 47 22 105 40 105 6 0 10 -9 10 -20 0
-23 13 -26 29 -6 19 23 2 46 -34 46 -36 0 -79 -34 -95 -75 -14 -36 -13 -108 2
-123 18 -18 59 -14 98 9 19 12 36 17 38 11 2 -6 14 -7 30 -3 25 7 28 13 39 87
6 43 12 80 12 82 1 1 8 2 16 2 17 0 17 -2 15 -82 -1 -53 1 -59 24 -69 20 -10
30 -9 49 4 16 10 37 13 70 10 41 -5 49 -2 77 25 20 21 30 40 30 61 0 17 4 31
9 31 5 0 8 -18 7 -41 0 -32 5 -45 24 -61 51 -41 139 -1 140 65 0 15 6 27 13
27 8 0 11 -14 9 -48 -4 -54 19 -86 60 -80 26 3 39 38 14 38 -20 0 -20 20 -1
125 20 109 20 107 -17 103 -27 -2 -34 -8 -36 -28 -7 -68 -14 -90 -27 -90 -8 0
-15 6 -15 13 0 23 -39 50 -70 50 -19 0 -41 -10 -58 -26 -35 -34 -48 -34 -56
-2 -12 47 -92 43 -129 -7 -11 -14 -22 -47 -24 -72 -3 -26 -10 -49 -15 -52 -19
-12 -26 12 -17 59 11 61 -1 87 -39 87 -16 0 -34 -6 -41 -12 -11 -11 -13 -5 -8
35 5 48 3 50 -35 40z m271 -91 c-1 -10 1 -25 5 -34 11 -25 -15 -72 -43 -76
-23 -4 -24 -2 -19 42 6 50 33 100 49 90 5 -3 9 -13 8 -22z m178 -4 c-4 -12 -1
-28 4 -34 16 -20 -11 -68 -40 -72 -23 -4 -24 -2 -19 47 5 53 21 81 45 81 11 0
14 -7 10 -22z"/>
<path d="M1631 1566 c-39 -14 -71 -49 -71 -78 0 -17 14 -33 83 -96 22 -20 22
-64 -1 -85 -22 -20 -43 -22 -60 -5 -17 17 -15 24 15 53 l28 25 -31 0 c-40 0
-64 -27 -64 -72 0 -49 31 -63 99 -42 111 32 134 147 40 194 -21 11 -40 29 -44
39 -8 27 11 61 35 61 20 0 24 -9 21 -42 -3 -28 28 -21 35 7 7 29 -10 55 -35
54 -9 0 -31 -6 -50 -13z"/>
<path d="M1340 1388 c-14 -5 -35 -11 -47 -12 -59 -8 -112 -82 -113 -158 0 -28
-4 -38 -16 -38 -13 0 -15 12 -12 66 4 79 -11 97 -59 75 -15 -8 -41 -14 -58
-15 -33 -1 -42 -21 -44 -94 -1 -50 -15 -82 -37 -82 -15 0 -15 18 2 129 5 33 5
33 -23 26 -15 -3 -29 -8 -30 -9 -2 -1 -8 -37 -15 -79 -7 -49 -17 -78 -26 -82
-8 -3 -17 -3 -20 0 -3 3 2 55 11 117 8 62 14 114 12 116 -2 2 -16 0 -32 -5
-26 -9 -28 -13 -40 -114 -16 -123 -17 -129 -39 -129 -15 0 -16 8 -10 58 3 31
9 85 13 119 l6 63 -31 -11 c-28 -10 -31 -15 -39 -71 -9 -66 -27 -85 -42 -45
-26 68 -129 30 -152 -55 -17 -66 9 -108 67 -108 44 0 80 34 89 84 10 52 25 44
25 -14 0 -38 4 -52 19 -60 21 -11 47 -5 73 17 11 10 18 11 23 4 8 -14 41 -14
68 1 12 6 37 11 54 9 18 -1 38 1 44 5 7 4 25 8 41 9 16 2 31 5 34 7 2 3 7 34
10 69 8 73 18 99 40 99 12 0 14 -10 8 -60 -9 -86 21 -114 77 -72 16 12 33 16
54 12 20 -3 26 -8 18 -13 -18 -12 -16 -66 2 -73 21 -8 74 15 86 37 10 19 43
263 37 278 -2 5 -14 4 -28 -1z m-35 -90 c-9 -69 -30 -104 -52 -87 -29 25 6
139 43 139 13 0 15 -9 9 -52z m-688 -126 c3 -52 -18 -95 -42 -86 -27 11 -13
117 18 136 17 10 21 3 24 -50z m659 -47 c-7 -18 -26 -20 -26 -2 0 18 24 41 28
27 2 -6 1 -17 -2 -25z"/>
<path d="M912 1353 c-12 -24 -4 -43 18 -43 23 0 44 26 36 45 -7 21 -43 19 -54
-2z"/>
<path d="M320 1344 c-63 -23 -89 -58 -70 -93 13 -25 45 -38 36 -15 -24 63 72
121 132 78 26 -18 29 -56 6 -78 -29 -30 -42 -20 -36 29 5 44 4 45 -25 45 l-30
0 -16 -117 c-9 -64 -14 -120 -11 -125 3 -4 16 -8 29 -8 19 0 25 6 29 33 17
107 17 108 34 105 14 -3 17 -16 17 -73 l0 -70 30 -3 30 -3 0 69 c0 41 -5 75
-13 84 -10 13 -9 18 3 28 24 20 19 77 -7 94 -25 16 -114 29 -138 20z"/>
<path d="M2005 1135 c-66 -13 -145 -30 -175 -38 -30 -8 -122 -34 -205 -57 -82
-22 -184 -50 -225 -62 -188 -52 -370 -89 -528 -107 l-144 -16 70 -71 c339
-345 879 -351 1221 -16 49 48 104 112 123 142 42 66 97 183 105 222 l6 28 -64
-1 c-35 0 -118 -11 -184 -24z"/>
<path d="M2253 1003 c-87 -186 -241 -346 -416 -435 -121 -61 -231 -89 -368
-95 -143 -6 -219 4 -344 47 -164 55 -322 166 -417 291 l-26 36 -149 11 c-81 7
-165 15 -186 18 l-38 7 15 -36 c8 -20 36 -69 62 -109 150 -234 360 -403 614
-497 150 -55 215 -65 420 -65 180 0 202 2 295 26 55 15 127 38 161 51 267 106
505 323 629 576 26 53 52 104 56 113 19 37 12 41 -78 36 -69 -3 -99 -10 -140
-30 l-52 -27 -3 75 -3 75 -32 -68z m-1505 -418 c3 -19 2 -19 -11 -2 -8 9 -18
17 -23 17 -4 0 -3 -5 4 -12 12 -12 17 -48 6 -48 -16 0 -44 23 -44 36 0 12 5
10 20 -7 10 -13 19 -19 20 -12 0 6 -4 15 -10 18 -5 3 -10 13 -10 21 0 24 44
13 48 -11z m1422 10 c7 -9 10 -19 6 -23 -4 -4 -14 2 -22 12 -11 15 -17 17 -26
8 -8 -8 -8 -15 2 -27 7 -8 10 -19 6 -23 -4 -4 -14 2 -22 12 -11 16 -17 17 -26
8 -9 -9 -9 -15 0 -24 7 -7 12 -16 12 -20 0 -15 -15 -8 -28 13 -12 19 -11 25
15 49 32 32 65 37 83 15z m-1379 -35 c10 -6 19 -16 19 -22 0 -9 -3 -9 -12 0
-18 18 -38 14 -38 -8 0 -11 7 -20 15 -20 8 0 15 -6 15 -12 0 -7 11 4 25 25 28
40 40 48 30 18 -3 -12 0 -21 10 -25 8 -3 15 -14 15 -24 0 -15 6 -17 34 -14 28
3 35 0 41 -17 5 -15 12 -20 24 -16 27 8 51 -5 51 -29 1 -19 3 -18 16 7 21 39
25 31 11 -21 -10 -40 -27 -57 -27 -29 0 7 -11 13 -27 12 -17 0 -31 7 -38 20
-7 14 -18 19 -37 17 -18 -2 -31 3 -39 16 -7 11 -19 18 -27 14 -12 -4 -12 -1
-3 17 20 37 -10 58 -34 24 -12 -16 -14 -16 -39 1 -33 21 -42 42 -26 61 15 18
16 18 41 5z m1277 -52 c3 -22 -2 -29 -22 -34 -30 -7 -46 1 -46 25 0 46 63 55
68 9z m-95 -20 c-22 -11 -29 -28 -17 -41 4 -3 15 -2 25 4 12 6 19 6 19 0 0
-16 -40 -24 -55 -11 -8 7 -15 16 -15 21 0 14 31 39 48 38 13 0 11 -3 -5 -11z
m-93 -49 l-25 -7 26 -1 c14 -1 29 -4 32 -8 11 -11 -14 -33 -37 -32 -20 0 -20
1 3 10 34 14 20 21 -16 8 -19 -6 -30 -17 -29 -27 1 -13 -7 -17 -31 -18 -18 0
-41 -8 -51 -17 -10 -9 -24 -17 -30 -17 -7 0 -9 -7 -5 -17 5 -14 3 -15 -6 -7
-7 7 -14 26 -14 44 -2 40 23 61 52 43 16 -10 20 -8 30 13 11 26 39 32 59 12 9
-9 12 -8 12 5 0 19 30 38 45 29 5 -3 -1 -9 -15 -13z m-740 -49 c0 -5 -9 -6
-19 -3 -13 3 -21 -2 -26 -16 -3 -12 -10 -21 -15 -21 -5 0 -4 13 1 29 8 23 15
27 34 23 14 -2 25 -8 25 -12z m99 -35 c-2 -25 -6 -45 -11 -45 -4 0 -8 7 -8 15
0 13 -3 13 -20 3 -15 -10 -25 -10 -38 -2 -22 14 -22 44 0 58 14 8 22 5 43 -14
l25 -23 0 26 c0 15 2 27 5 27 3 0 5 -20 4 -45z m27 -43 c-13 -13 -17 9 -10 50
l9 43 3 -44 c2 -23 1 -46 -2 -49z m39 59 c-3 -6 12 -11 32 -13 34 -3 38 -6 40
-33 2 -28 1 -28 -5 -5 -10 31 -36 33 -40 3 -5 -32 -22 -29 -23 5 l-2 27 -4
-27 c-2 -16 -9 -28 -15 -28 -6 0 -8 10 -4 23 3 12 6 30 6 40 0 9 5 17 11 17 5
0 8 -4 4 -9z m370 -21 c0 -20 -6 -26 -28 -28 -32 -4 -46 20 -26 44 19 24 54
14 54 -16z m-92 10 c-30 -12 -30 -40 -1 -40 16 0 19 -3 11 -11 -13 -13 -53 5
-53 24 0 20 22 37 45 36 19 0 19 -1 -2 -9z m-122 -38 c5 -23 2 -37 -8 -47 -18
-19 -24 -19 -49 0 -18 14 -17 14 16 10 26 -3 28 -3 11 3 -52 16 -55 76 -4 70
22 -2 29 -10 34 -36z m69 29 c0 -5 -10 -7 -22 -3 -14 3 -19 2 -14 -6 4 -7 14
-12 22 -12 8 0 14 -7 14 -15 0 -9 -9 -15 -25 -15 -14 0 -25 4 -25 9 0 5 10 7
23 5 16 -3 15 -1 -5 7 -28 11 -34 20 -21 32 10 10 53 8 53 -2z"/>
<path d="M887 463 c-9 -9 12 -33 29 -33 8 0 14 9 14 20 0 19 -28 28 -43 13z"/>
<path d="M970 430 c-7 -4 -9 -13 -6 -19 10 -16 46 -14 46 3 0 17 -23 27 -40
16z"/>
<path d="M2020 515 c-9 -10 -10 -19 -3 -26 14 -14 45 0 41 19 -4 22 -23 25
-38 7z"/>
<path d="M1798 403 c7 -3 16 -2 19 1 4 3 -2 6 -13 5 -11 0 -14 -3 -6 -6z"/>
<path d="M1717 384 c-14 -14 -7 -35 11 -32 9 2 17 10 17 17 0 16 -18 25 -28
15z"/>
<path d="M1805 380 c-3 -5 -2 -10 4 -10 5 0 13 5 16 10 3 6 2 10 -4 10 -5 0
-13 -4 -16 -10z"/>
<path d="M1162 353 c2 -10 10 -18 18 -18 8 0 16 8 18 18 2 12 -3 17 -18 17
-15 0 -20 -5 -18 -17z"/>
<path d="M1637 364 c-14 -15 -6 -34 14 -34 14 0 19 5 17 17 -3 18 -20 27 -31
17z"/>
<path d="M1412 337 c-14 -16 -6 -27 20 -27 13 0 18 6 16 17 -4 22 -22 27 -36
10z"/>
</g>
</svg>
